<svg width="88" height="88" viewBox="0 0 88 88" fill="none" xmlns="http://www.w3.org/2000/svg">
<g id="icon=react">
<path id="Vector" d="M52.1767 44.0131C52.1767 46.1869 51.3134 48.2717 49.7766 49.8091C48.2399 51.3466 46.1555 52.2108 43.9817 52.2117C41.8072 52.2117 39.7219 51.348 38.1843 49.8104C36.6468 48.2729 35.783 46.1875 35.783 44.0131C35.783 41.8393 36.6463 39.7545 38.183 38.217C39.7198 36.6796 41.8042 35.8154 43.978 35.8144C46.1524 35.8144 48.2378 36.6782 49.7753 38.2157C51.3129 39.7533 52.1767 41.8386 52.1767 44.0131ZM61.886 4.81641C56.9507 4.81641 50.4937 8.33641 43.9633 14.4304C37.4367 8.36941 30.976 4.88974 26.0443 4.88974C24.541 4.88974 23.1733 5.23074 21.989 5.90907C16.9473 8.81674 15.818 17.8771 18.4213 29.2474C7.26 32.6941 0 38.2051 0 44.0131C0 49.8431 7.29667 55.3687 18.491 58.7897C15.9097 70.2041 17.061 79.2791 22.1137 82.1831C23.287 82.8687 24.6437 83.1914 26.1543 83.1914C31.086 83.1914 37.5467 79.6714 44.077 73.5701C50.6037 79.6347 57.0643 83.1144 61.996 83.1144C63.4993 83.1144 64.867 82.7844 66.0513 82.1061C71.0893 79.2021 72.2223 70.1417 69.619 58.7677C80.74 55.3504 88 49.8284 88 44.0131C88 38.1831 80.7033 32.6574 69.509 29.2291C72.0903 17.8257 70.939 8.74341 65.8863 5.83574C64.7203 5.16107 63.3673 4.82007 61.886 4.81641ZM61.8677 8.81307V8.83507C62.6927 8.83507 63.3563 8.99641 63.9137 9.30074C66.3557 10.7014 67.4153 16.0291 66.5903 22.8821C66.3923 24.5687 66.0697 26.3471 65.6737 28.1621C62.1537 27.2967 58.3183 26.6331 54.2813 26.2041C51.8613 22.8857 49.3497 19.8717 46.8197 17.2317C52.657 11.8051 58.1387 8.82774 61.8713 8.81674L61.8677 8.81307ZM26.0443 8.88641C29.755 8.88641 35.2623 11.8491 41.1143 17.2464C38.599 19.8864 36.091 22.8821 33.7077 26.2004C29.6487 26.6294 25.8097 27.2931 22.2933 28.1731C21.8827 26.3764 21.5783 24.6384 21.362 22.9664C20.5187 16.1171 21.56 10.7931 23.98 9.37407C24.6767 9.04407 25.4467 8.90474 26.0443 8.88641ZM43.945 20.0697C45.6133 21.7857 47.2817 23.7071 48.9317 25.8044C47.3183 25.7311 45.6683 25.6797 44 25.6797C42.3133 25.6797 40.645 25.7164 39.0133 25.8044C40.6267 23.7071 42.295 21.7894 43.945 20.0697ZM44 29.6984C46.7133 29.6984 49.4157 29.8231 52.074 30.0394C53.5627 32.1734 55.0147 34.4504 56.4117 36.8594C57.7757 39.2061 59.015 41.5894 60.1443 43.9947C59.015 46.3964 57.7757 48.7981 56.43 51.1447C55.0367 53.5647 53.5957 55.8674 52.1033 58.0014C49.434 58.2324 46.728 58.3607 44 58.3607C41.2867 58.3607 38.5843 58.2324 35.926 58.0197C34.4373 55.8857 32.9853 53.6051 31.5883 51.1997C30.2243 48.8531 28.985 46.4697 27.8557 44.0644C28.9667 41.6554 30.2243 39.2501 31.57 36.8997C32.9633 34.4797 34.4043 32.1844 35.8967 30.0504C38.566 29.8157 41.272 29.6911 44 29.6911V29.6984ZM30.6717 30.6297C29.7917 32.0121 28.9117 33.4274 28.0903 34.8831C27.2653 36.3131 26.4953 37.7504 25.762 39.1877C24.7903 36.7824 23.9653 34.3844 23.2833 32.0487C25.63 31.4987 28.105 31.0074 30.6717 30.6297ZM57.2917 30.6297C59.84 31.0074 62.2967 31.4731 64.647 32.0487C63.987 34.3661 63.162 36.7494 62.227 39.1364C61.4937 37.7064 60.7237 36.2654 59.8803 34.8317C59.0553 33.3944 58.1753 31.9937 57.2953 30.6297H57.2917ZM68.5227 33.1047C70.2973 33.6547 71.984 34.2671 73.5643 34.9307C79.915 37.6441 84.0217 41.1934 84.0217 44.0094C84.0033 46.8254 79.8967 50.3894 73.546 53.0844C72.006 53.7444 70.3193 54.3384 68.5777 54.8921C67.551 51.3794 66.209 47.7201 64.5443 43.9654C66.1943 40.2364 67.5143 36.5954 68.5227 33.0974V33.1047ZM19.4077 33.1194C20.427 36.6394 21.7727 40.2951 23.441 44.0461C21.791 47.7751 20.4637 51.4161 19.459 54.9141C17.6843 54.3641 15.9977 53.7481 14.4357 53.0807C8.085 50.3784 3.97833 46.8254 3.97833 44.0094C3.97833 41.1934 8.085 37.6221 14.4357 34.9307C15.9757 34.2707 17.6623 33.6767 19.4077 33.1194ZM62.227 48.8127C63.1987 51.2217 64.0237 53.6234 64.7057 55.9554C62.359 56.5311 59.8803 57.0187 57.3137 57.3854C58.1937 56.0104 59.0737 54.5914 59.8987 53.1394C60.7237 51.7094 61.49 50.2501 62.227 48.8127ZM25.762 48.8861C26.4953 50.3234 27.2653 51.7571 28.1087 53.1944C28.952 54.6244 29.8137 56.0251 30.6937 57.3854C28.1453 57.0114 25.6887 56.5421 23.3383 55.9701C23.9983 53.6601 24.827 51.2694 25.7583 48.8824L25.762 48.8861ZM65.7067 59.8384C66.1173 61.6461 66.44 63.3877 66.638 65.0561C67.4813 71.9054 66.44 77.2294 64.02 78.6521C63.481 78.9821 62.7807 79.1214 61.9557 79.1214C58.245 79.1214 52.7377 76.1624 46.8857 70.7614C49.401 68.1214 51.909 65.1294 54.2923 61.8147C58.3513 61.3821 62.1903 60.7184 65.7067 59.8384ZM22.33 59.8751C25.85 60.7331 29.6853 61.3967 33.7223 61.8257C36.1423 65.1441 38.654 68.1581 41.184 70.7944C35.3357 76.2321 29.8467 79.2094 26.114 79.2094C25.3073 79.1911 24.6253 79.0261 24.0863 78.7254C21.6443 77.3321 20.5847 72.0007 21.4097 65.1477C21.6077 63.4611 21.934 61.6864 22.33 59.8751ZM39.05 62.2217C40.6633 62.2951 42.3133 62.3464 43.9817 62.3464C45.6683 62.3464 47.3367 62.3097 48.9683 62.2217C47.355 64.3191 45.6867 66.2367 44.0367 67.9601C42.3683 66.2367 40.7 64.3191 39.05 62.2217Z" fill="#9BC0ED"/>
</g>
</svg>
