<svg width="88" height="88" viewBox="0 0 88 88" fill="none" xmlns="http://www.w3.org/2000/svg">
<g id="icon=reactquery (1)">
<path id="Vector" d="M25.4086 50.1859C26.01 49.842 26.7836 50.0568 27.1272 50.6728L27.3564 51.0597C29.1182 54.1818 30.9515 57.1467 32.8564 59.9543C35.1051 63.2627 37.6403 66.6144 40.4621 70.0086C40.6769 70.2639 40.7823 70.5936 40.7555 70.9262C40.7287 71.2587 40.5717 71.5672 40.3188 71.7848L40.0467 72.0282C30.7224 80.1781 24.6782 81.7962 21.885 76.9122C19.1496 72.1287 20.1378 63.449 24.8498 50.8448C24.9526 50.5662 25.1505 50.3328 25.4086 50.1859ZM65.0831 59.768C65.7563 59.6532 66.4009 60.0833 66.5296 60.7562L66.6014 61.1287C68.9074 73.1741 67.2889 79.2043 61.7457 79.2043C56.3175 79.2043 49.4282 74.0621 41.0349 63.7925C40.8463 63.5635 40.7494 63.2727 40.7628 62.9763C40.7628 62.2888 41.3355 61.73 42.023 61.73H42.4671C45.9033 61.7571 49.3392 61.6377 52.7653 61.3722C56.6897 61.0568 60.8004 60.527 65.0831 59.768ZM68.2767 34.1871C68.3941 33.8705 68.6307 33.6124 68.9358 33.4679C69.2409 33.3233 69.5905 33.3038 69.9099 33.4135L70.2824 33.5425C82.242 37.6103 86.7967 42.0932 83.9176 46.9776C81.1104 51.7615 72.9462 55.2422 59.4111 57.4191C59.1104 57.462 58.7951 57.4045 58.5373 57.2468C57.9213 56.8889 57.7068 56.1156 58.079 55.4996L58.3082 55.1132C60.1562 52.0192 61.8172 48.94 63.3212 45.8603C65.0688 42.2366 66.7298 38.3407 68.2767 34.1871ZM28.5887 30.5777C28.8894 30.5348 29.2047 30.5923 29.4625 30.75C30.0785 31.1079 30.293 31.8812 29.9208 32.4972L29.6917 32.8836C27.8915 35.8962 26.219 38.9832 24.6786 42.1365C22.9311 45.7602 21.2697 49.6561 19.7227 53.8097C19.6053 54.1262 19.3689 54.3842 19.0638 54.5288C18.7587 54.6733 18.4093 54.6929 18.09 54.5833L17.7174 54.4543C5.75786 50.3865 1.20313 45.9036 4.08219 41.0192C6.88939 36.2353 15.0536 32.7546 28.5887 30.5777ZM47.9531 15.9686C57.2775 7.81867 63.3216 6.20057 66.1149 11.0846C68.8502 15.8681 67.862 24.5478 63.15 37.152C63.0472 37.4306 62.8493 37.664 62.5912 37.8109C61.9899 38.1548 61.2162 37.94 60.8726 37.324L60.6435 36.9371C58.8816 33.815 57.0483 30.8501 55.1435 28.0425C52.8947 24.7341 50.3596 21.3824 47.5377 17.9882C47.3229 17.7329 47.2175 17.4032 47.2443 17.0706C47.2712 16.7381 47.4281 16.4296 47.6811 16.212L47.9531 15.9686ZM26.7121 8.33457C32.1406 8.33457 39.0442 13.4763 47.4233 23.7456C47.6076 23.9724 47.7087 24.2555 47.7097 24.5478C47.6954 25.2496 47.1369 25.8084 46.4351 25.8084L46.0054 25.7938C42.569 25.7784 39.1335 25.9026 35.7072 26.1663C31.7685 26.4816 27.6578 27.0115 23.3751 27.7705C23.0508 27.8258 22.7177 27.7518 22.4473 27.5644C22.1769 27.377 21.9907 27.0911 21.9286 26.768L21.8567 26.4098C19.5504 14.3644 21.1689 8.33457 26.7121 8.33457ZM37.2395 29.6467H50.7603C51.169 29.6468 51.5704 29.754 51.9248 29.9576C52.2791 30.1611 52.5739 30.4539 52.7799 30.8068L59.5548 42.6091C59.752 42.9614 59.8556 43.3584 59.8556 43.7621C59.8556 44.1658 59.752 44.5628 59.5548 44.9151L52.7799 56.7316C52.574 57.0845 52.2792 57.3773 51.9249 57.5808C51.5707 57.7844 51.1693 57.8916 50.7607 57.8918H37.2399C36.409 57.8918 35.6357 57.4477 35.2342 56.7316L28.4454 44.9151C28.2481 44.5627 28.1445 44.1657 28.1445 43.7619C28.1445 43.3581 28.2481 42.9611 28.4454 42.6087L35.2346 30.8068C35.6353 30.0907 36.409 29.6467 37.2395 29.6467ZM49.0847 32.5544C49.4933 32.5545 49.8948 32.6617 50.2491 32.8652C50.6034 33.0688 50.8983 33.3616 51.1043 33.7145L56.2031 42.6091C56.4003 42.9614 56.5039 43.3584 56.5039 43.7621C56.5039 44.1658 56.4003 44.5628 56.2031 44.9151L51.1043 53.824C50.8983 54.1769 50.6034 54.4697 50.2491 54.6732C49.8948 54.8768 49.4933 54.984 49.0847 54.9841H38.9155C38.0847 54.9841 37.3114 54.5401 36.9102 53.824L31.7971 44.9151C31.5998 44.5627 31.4962 44.1657 31.4962 43.7619C31.4962 43.3581 31.5998 42.9611 31.7971 42.6087L36.9102 33.7145C37.3114 32.9984 38.0847 32.5544 38.9155 32.5544H49.0847ZM47.2799 35.7341H40.7203C39.8894 35.7341 39.1304 36.1638 38.7146 36.8942L35.4208 42.6091C35.2236 42.9614 35.12 43.3584 35.12 43.7621C35.12 44.1658 35.2236 44.5628 35.4208 44.9151L38.715 50.6442C38.9179 50.9966 39.2101 51.2894 39.5621 51.493C39.9142 51.6967 40.3136 51.8041 40.7203 51.8044H47.2799C47.6867 51.8041 48.0862 51.6968 48.4382 51.4931C48.7903 51.2895 49.0826 50.9967 49.2856 50.6442L52.5794 44.9151C52.7766 44.5627 52.8802 44.1657 52.8802 43.7619C52.8802 43.3581 52.7766 42.9611 52.5794 42.6087L49.2852 36.8942C48.8698 36.1638 48.1108 35.7341 47.2799 35.7341ZM45.5328 38.7705C46.3633 38.7705 47.1369 39.2145 47.5377 39.9306L49.085 42.6091C49.5001 43.3252 49.5001 44.2133 49.085 44.9151L47.5377 47.6079C47.1369 48.324 46.3633 48.768 45.5328 48.768H42.4674C42.0608 48.7676 41.6615 48.6602 41.3095 48.4566C40.9576 48.2529 40.6654 47.9602 40.4625 47.6079L38.9152 44.9151C38.5001 44.2133 38.5001 43.3252 38.9152 42.6087L40.4625 39.9306C40.6654 39.5783 40.9576 39.2855 41.3095 39.0819C41.6615 38.8783 42.0608 38.7708 42.4674 38.7705H45.5328ZM44.0001 41.7639C43.6487 41.765 43.3038 41.8581 42.9997 42.0341C42.6955 42.21 42.4429 42.4627 42.2669 42.7668C41.909 43.3828 41.909 44.1418 42.2669 44.7717C42.4436 45.074 42.6969 45.3246 43.0011 45.4981C43.3053 45.6716 43.6499 45.762 44.0001 45.7602C44.3503 45.762 44.6949 45.6716 44.9991 45.4981C45.3033 45.3246 45.5565 45.074 45.7333 44.7717C46.0912 44.1418 46.0912 43.3824 45.7333 42.7668C45.5573 42.4626 45.3046 42.2099 45.0004 42.034C44.6962 41.858 44.3515 41.7649 44.0001 41.7639ZM27.7865 43.7692H31.3816H27.7865ZM69.5949 28.4151C71.0271 21.4686 71.3421 16.1545 70.4111 12.2876C69.867 9.98127 68.8645 8.11933 67.3318 6.759C65.7134 5.32643 63.6652 4.625 61.3735 4.625C57.5778 4.625 53.5961 6.35787 49.3421 9.6377C47.6092 10.9698 45.8045 12.5883 43.9425 14.4645C43.7849 14.2782 43.6272 14.0923 43.4413 13.9347C38.1415 9.22227 33.6872 6.30067 29.8772 5.16913C27.6145 4.49593 25.4944 4.43837 23.561 5.08297C21.5128 5.77047 19.8797 7.18837 18.7342 9.17937C16.8437 12.4592 16.3421 16.7848 17.0439 22.1132C17.3306 24.2758 17.8318 26.6389 18.5193 29.2027C18.2516 29.2341 17.9877 29.2918 17.7314 29.375C11.0291 31.6087 6.27339 33.9862 3.39433 36.7219C1.68969 38.3404 0.572827 40.1594 0.157394 42.1504C-0.258039 44.2701 0.157394 46.3898 1.30323 48.3808C3.19376 51.6606 6.67416 54.239 11.63 56.2872C13.621 57.1034 15.8694 57.8481 18.3903 58.5213C18.2724 58.7874 18.1859 59.0662 18.1325 59.3522C16.7003 66.2844 16.3853 71.6128 17.3163 75.4654C17.8604 77.7717 18.8772 79.6479 20.3956 80.994C22.014 82.4265 24.0622 83.128 26.3539 83.128C30.1496 83.128 34.1309 81.3951 38.3853 78.1296C40.1325 76.7689 41.9515 75.1361 43.8421 73.2309C44.0452 73.5366 44.2857 73.8158 44.5582 74.0618C49.858 78.7742 54.3122 81.6958 58.1223 82.8273C60.3853 83.5005 62.505 83.5581 64.4385 82.9135C66.4867 82.226 68.1198 80.8081 69.2653 78.8171C71.1562 75.5372 71.6574 71.2117 70.9556 65.8836C70.6549 63.6349 70.139 61.1855 69.3943 58.507C69.6905 58.4789 69.9832 58.4214 70.2681 58.3354C76.9708 56.101 81.7264 53.7235 84.6051 50.9874C86.3098 49.3693 87.427 47.5503 87.8421 45.5593C88.2575 43.4396 87.8421 41.3195 86.6962 39.3289C84.8057 36.0487 81.3253 33.4707 76.3694 31.4225C74.3212 30.5777 71.9867 29.804 69.38 29.1308C69.4796 28.9014 69.5518 28.6614 69.5949 28.4151Z" fill="#9BC0ED"/>
</g>
</svg>
