<svg width="88" height="88" viewBox="0 0 88 88" fill="none" xmlns="http://www.w3.org/2000/svg">
<g id="icon=styledcomponents">
<path id="Vector" d="M59.4513 24.793L59.1763 26.2266C58.751 28.9436 58.905 29.721 60.071 30.7293L61.1967 31.6606L60.0307 36.86C59.334 39.962 58.4797 42.5616 57.937 43.416C57.4713 44.153 56.9287 45.2383 56.8113 45.8213C56.617 46.518 55.957 47.2183 54.9487 47.838C54.0577 48.344 52.3087 49.7006 51.0693 50.7896C50.0793 51.6806 49.3973 52.227 49.027 52.4616L47.817 53.4186C47.4283 54.042 47.2083 54.5443 47.124 54.9256C47.0397 55.318 47.0873 55.5783 47.212 55.769C47.333 55.9523 47.542 56.0806 47.828 56.1613C48.1666 56.2407 48.5151 56.2691 48.862 56.2456C49.6469 56.192 50.4238 56.0543 51.1793 55.835C51.436 55.7653 51.6377 55.6993 51.8137 55.6406C52.085 55.307 52.712 54.6763 53.823 53.58C56.771 50.6723 57.8967 49.081 56.7343 49.51C56.3053 49.664 56.4997 49.2753 57.2367 48.498C58.7913 46.9836 59.6823 44.6956 61.545 37.52C63.019 31.855 63.019 31.7743 64.1043 31.7743C64.614 31.7743 66.055 31.8623 66.055 31.8623V24.793H62.7477H59.4513ZM73.5277 36.398C73.293 36.398 72.9043 36.75 72.6733 37.1386C72.248 37.8353 72.7503 38.2606 79.1523 42.2573C82.9547 44.6663 86.02 46.7196 85.943 46.8773C85.866 46.991 82.7603 49.0113 79.0387 51.3396C72.2847 55.527 72.248 55.5673 72.8677 56.4216C73.645 57.43 72.8677 57.7783 81.6347 52.3076L88 48.234V45.1686L80.8977 40.7833C77.0587 38.378 73.722 36.4383 73.5277 36.398ZM14.5493 36.827C14.355 36.827 11.0183 38.807 7.17933 41.172L0 45.5573V48.6226L7.139 53.085C11.099 55.527 14.4357 57.5473 14.5897 57.5473C14.7437 57.5473 15.0553 57.1953 15.367 56.77C15.8327 56.033 15.4403 55.7213 8.88433 51.5706C2.64 47.651 1.98 47.1083 2.60333 46.683C2.992 46.4116 5.94 44.5856 9.12267 42.6093C16.379 38.147 15.9903 38.455 15.4073 37.5236C15.1763 37.1386 14.784 36.7903 14.553 36.827H14.5493ZM46.3907 36.9113C45.32 36.904 43.0173 38.5356 36.124 44.164C35.827 44.8716 35.8013 45.3593 35.937 45.6746C36.025 45.891 36.1863 46.0413 36.41 46.1513C36.63 46.2613 36.916 46.3273 37.2313 46.353C37.8583 46.408 38.599 46.309 39.1967 46.1916L39.6 46.1C39.7381 45.9148 39.9193 45.7663 40.128 45.6673C40.5533 45.4326 42.339 43.8046 44.1247 42.0593C47.267 38.8766 48.004 37.4393 46.7243 36.9736C46.6194 36.9319 46.5037 36.9107 46.3907 36.9113ZM54.4427 39.1223C53.5003 39.148 51.8027 40.2406 48.895 42.5616C47.4357 43.746 46.5117 44.384 46.0167 44.516L44.0953 46.034C43.373 47.354 43.2667 48.1716 43.4573 48.6226C43.5051 48.7339 43.5743 48.8346 43.6612 48.9189C43.748 49.0032 43.8507 49.0695 43.9633 49.114C44.2435 49.2246 44.5422 49.2806 44.8433 49.279C45.563 49.2713 46.2784 49.1665 46.97 48.9673C47.3304 48.8706 47.6865 48.758 48.037 48.63L48.1433 48.586L48.3377 48.4833C48.7043 48.0103 49.5477 47.1193 50.6037 46.0926C53.9403 42.8733 55.6453 40.5853 55.297 39.731C55.1393 39.3166 54.868 39.1076 54.4427 39.1223ZM45.5547 43.0823C45.2833 43.1116 44.6747 43.581 43.5783 44.5416C41.9943 45.9423 40.2673 46.749 39.6697 46.3896C39.5308 46.421 39.3914 46.4503 39.2517 46.4776C38.643 46.5986 37.884 46.6976 37.2057 46.6426C36.8861 46.6233 36.5728 46.545 36.2817 46.4116C36.0071 46.2861 35.788 46.0644 35.6657 45.7883C35.53 45.4583 35.53 45.0476 35.684 44.5233L33.3007 46.4813L27.907 50.9436V58.178L45.5803 44.2556C45.5769 44.1032 45.5967 43.9511 45.639 43.8046C45.7747 43.3133 45.7673 43.064 45.5547 43.086V43.0823ZM53.1593 45.4253C52.8917 45.4253 52.4443 45.803 51.7293 46.562C50.7577 47.5996 49.2287 48.6043 48.4183 48.8096L48.2937 48.8756C48.1606 48.9306 48.0261 48.9819 47.8903 49.0296C47.6703 49.103 47.3843 49.191 47.0543 49.279C46.3943 49.4586 45.573 49.6236 44.8397 49.6053C44.4939 49.6049 44.1516 49.5376 43.8313 49.4073C43.5295 49.2829 43.2877 49.0463 43.1567 48.7473C42.944 48.2376 43.0283 47.5226 43.494 46.507L27.9033 58.7866V63.205H34.7527L49.28 51.7943C49.6577 51.3763 50.226 50.8043 50.9923 50.0893C53.0457 48.1863 53.5113 47.53 53.5113 46.5583C53.5113 45.803 53.427 45.4216 53.1593 45.4216V45.4253ZM56.617 52.5753L55.374 53.8146C54.6773 54.4746 53.4343 55.2886 52.5837 55.637L52.415 55.7103L52.404 55.7286L52.3673 55.7653C52.3343 55.791 52.3197 55.7946 52.294 55.8056C51.9544 55.9342 51.6094 56.0479 51.26 56.1466C50.4831 56.3728 49.684 56.5142 48.8767 56.5683C48.495 56.5928 48.1117 56.5594 47.74 56.4693C47.4174 56.3983 47.1326 56.2102 46.9407 55.9413C46.7647 55.67 46.7133 55.307 46.8123 54.8596C46.8911 54.5412 47.008 54.2334 47.1607 53.943L35.4383 63.205H51.029L52.8917 61.071C55.451 58.0863 56.617 55.9523 56.617 54.1263V52.5753Z" fill="#9BC0ED"/>
</g>
</svg>
