<svg width="88" height="88" viewBox="0 0 88 88" fill="none" xmlns="http://www.w3.org/2000/svg">
<g id="icon=tailwindcss" clip-path="url(#clip0_4129_120681)">
<path id="Vector" d="M44.0039 17.6016C32.2706 17.6016 24.9372 23.4682 22.0039 35.2016C26.4039 29.3349 31.5372 27.1349 37.4039 28.6016C40.7516 29.4376 43.1422 31.8649 45.7932 34.5562C50.1089 38.9342 55.0992 44.0016 66.0039 44.0016C77.7372 44.0016 85.0706 38.1349 88.0039 26.4016C83.6039 32.2682 78.4706 34.4682 72.6039 33.0016C69.2562 32.1656 66.8656 29.7382 64.2146 27.0469C59.9026 22.6689 54.9122 17.6016 44.0039 17.6016ZM22.0039 44.0016C10.2706 44.0016 2.93724 49.8682 0.00390625 61.6016C4.40391 55.7349 9.53724 53.5349 15.4039 55.0016C18.7516 55.8376 21.1422 58.2649 23.7932 60.9562C28.1089 65.3342 33.0992 70.4016 44.0039 70.4016C55.7372 70.4016 63.0706 64.5349 66.0039 52.8016C61.6039 58.6682 56.4706 60.8682 50.6039 59.4016C47.2562 58.5656 44.8656 56.1382 42.2146 53.4469C37.9026 49.0689 32.9122 44.0016 22.0039 44.0016Z" fill="#9BC0ED"/>
</g>
<defs>
<clipPath id="clip0_4129_120681">
<rect width="88" height="88" fill="white"/>
</clipPath>
</defs>
</svg>
