<svg width="88" height="88" viewBox="0 0 88 88" fill="none" xmlns="http://www.w3.org/2000/svg">
<g id="icon=typescript" clipPath="url(#clip0_4129_120684)">
<path id="Vector" d="M4.125 0C1.84067 0 0 1.84067 0 4.125V83.875C0 86.1593 1.84067 88 4.125 88H83.875C86.1593 88 88 86.1593 88 83.875V4.125C88 1.84067 86.1593 0 83.875 0H4.125ZM67.7893 35.75C70.0333 35.75 72.0207 35.8857 73.755 36.157C75.3908 36.4021 76.996 36.82 78.5437 37.4037V46.4163C77.8008 45.9026 77.0114 45.4594 76.186 45.0927C75.3347 44.7096 74.4559 44.391 73.557 44.1393C71.8542 43.6648 70.096 43.4182 68.3283 43.406C67.2283 43.406 66.2273 43.5087 65.3253 43.7213C64.5214 43.8933 63.7502 44.1928 63.041 44.6087C62.4177 44.99 61.941 45.4483 61.6 45.98C61.257 46.5159 61.0786 47.1405 61.0867 47.7767C61.0867 48.4953 61.281 49.1443 61.6587 49.7163C62.04 50.2883 62.5827 50.831 63.283 51.3443C63.9833 51.8577 64.834 52.3563 65.835 52.8477C66.836 53.3427 67.969 53.8523 69.2303 54.373C70.9537 55.0953 72.501 55.8653 73.8723 56.6757C75.2437 57.4897 76.4207 58.41 77.4033 59.4367C78.386 60.4597 79.134 61.6293 79.6547 62.9457C80.1753 64.262 80.4393 65.791 80.4393 67.54C80.4393 69.949 79.981 71.9767 79.0717 73.612C78.1832 75.2249 76.9082 76.5919 75.361 77.5903C73.6934 78.6478 71.845 79.3886 69.9087 79.7757C67.8333 80.2157 65.6443 80.4357 63.3453 80.4357C61.0826 80.4456 58.8239 80.2443 56.5987 79.8343C54.6734 79.5014 52.8062 78.8925 51.0547 78.0267V68.3833C54.3685 71.2034 58.5723 72.7618 62.9237 72.7833C64.1447 72.7833 65.2117 72.6733 66.121 72.4533C67.034 72.2333 67.793 71.9253 68.4053 71.5367C69.014 71.1407 69.4687 70.6787 69.773 70.1433C70.1094 69.52 70.2624 68.8143 70.2144 68.1076C70.1664 67.401 69.9193 66.7224 69.5017 66.1503C68.9569 65.4294 68.2906 64.809 67.5327 64.317C66.5927 63.694 65.6031 63.1495 64.5737 62.689C63.3536 62.1318 62.1225 61.5988 60.8813 61.0903C57.5153 59.686 55.0073 57.9663 53.3537 55.9387C51.7037 53.911 50.875 51.458 50.875 48.587C50.875 46.3357 51.326 44.4033 52.228 42.7863C53.13 41.1693 54.3547 39.8383 55.9093 38.7933C57.5537 37.7085 59.3793 36.9274 61.2993 36.487C63.4259 35.9856 65.6045 35.7382 67.7893 35.75ZM12.375 36.4393H47.4393V44.3813H34.8553V79.75H24.893V44.3813H12.375V36.4393Z" fill="#9BC0ED"/>
</g>
<defs>
<clipPath id="clip0_4129_120684">
<rect width="88" height="88" fill="white"/>
</clipPath>
</defs>
</svg>
